<?xml version="1.0" encoding="UTF-8" standalone="no"?>
<svg
   xmlns:dc="http://purl.org/dc/elements/1.1/"
   xmlns:cc="http://creativecommons.org/ns#"
   xmlns:rdf="http://www.w3.org/1999/02/22-rdf-syntax-ns#"
   xmlns:svg="http://www.w3.org/2000/svg"
   xmlns="http://www.w3.org/2000/svg"
   xmlns:sodipodi="http://sodipodi.sourceforge.net/DTD/sodipodi-0.dtd"
   xmlns:inkscape="http://www.inkscape.org/namespaces/inkscape"
   width="1920"
   height="1080"
   viewBox="0 0 507.99999 285.74999"
   version="1.1"
   id="svg8"
   inkscape:version="1.0.2 (e86c870879, 2021-01-15)"
   sodipodi:docname="bars.svg">
  <defs
     id="defs2" />
  <sodipodi:namedview
     id="base"
     pagecolor="#565656"
     bordercolor="#666666"
     borderopacity="1.0"
     inkscape:pageopacity="0"
     inkscape:pageshadow="2"
     inkscape:zoom="0.24748737"
     inkscape:cx="1008.3373"
     inkscape:cy="397.13032"
     inkscape:document-units="px"
     inkscape:current-layer="layer1"
     inkscape:document-rotation="0"
     showgrid="true"
     inkscape:snap-center="true"
     fit-margin-top="0"
     fit-margin-left="0"
     fit-margin-right="0"
     fit-margin-bottom="0"
     showborder="true"
     inkscape:window-width="1366"
     inkscape:window-height="715"
     inkscape:window-x="-8"
     inkscape:window-y="-8"
     inkscape:window-maximized="1"
     units="px"
     inkscape:snap-grids="true"
     inkscape:snap-midpoints="true"
     inkscape:snap-page="true"
     inkscape:showpageshadow="false"
     showguides="true">
    <inkscape:grid
       type="xygrid"
       id="grid830"
       enabled="false"
       visible="true" />
  </sodipodi:namedview>
  <metadata
     id="metadata5">
    <rdf:RDF>
      <cc:Work
         rdf:about="">
        <dc:format>image/svg+xml</dc:format>
        <dc:type
           rdf:resource="http://purl.org/dc/dcmitype/StillImage" />
        <dc:title></dc:title>
      </cc:Work>
    </rdf:RDF>
  </metadata>
  <g
     inkscape:label="canvas"
     inkscape:groupmode="layer"
     id="layer1"
     transform="translate(3.2072327,60.93745)"
     style="display:inline;opacity:1;mix-blend-mode:normal;">
    <path
       d="m 173.74938,53.786994 h 110.06666 c 2.33813,0 4.23334,-1.89521 4.23334,-4.233333 V 38.970328 c 0,-2.338123 -1.89521,-4.233333 -4.23334,-4.233333 H 173.74938 c -2.33813,0 -4.23334,1.89521 -4.23334,4.233333 v 10.583333 c 0,2.338123 1.89521,4.233333 4.23334,4.233333 z m 0,42.33333 h 110.06666 c 2.33813,0 4.23334,-1.89521 4.23334,-4.23333 v -10.58333 c 0,-2.338127 -1.89521,-4.233337 -4.23334,-4.233337 H 173.74938 c -2.33813,0 -4.23334,1.89521 -4.23334,4.233337 v 10.58333 c 0,2.33812 1.89521,4.23333 4.23334,4.23333 z m 0,42.333326 h 110.06666 c 2.33813,0 4.23334,-1.89521 4.23334,-4.23333 v -10.58333 c 0,-2.33812 -1.89521,-4.23333 -4.23334,-4.23333 H 173.74938 c -2.33813,0 -4.23334,1.89521 -4.23334,4.23333 v 10.58333 c 0,2.33812 1.89521,4.23333 4.23334,4.23333 z"
       id="path5358"
       style="fill:#ffffff;stroke-width:0.264583" />
  </g>
</svg>
